<svg xmlns="http://www.w3.org/2000/svg" version="1.1" xmlns:xlink="http://www.w3.org/1999/xlink" xmlns:svgjs="http://svgjs.com/svgjs" width="1440" height="560" preserveAspectRatio="none" viewBox="0 0 1440 560"><g mask="url(&quot;#SvgjsMask1060&quot;)" fill="none"><rect width="1440" height="560" x="0" y="0" fill="rgba(255, 255, 255, 1)"></rect><path d="M 0,145 C 96,118.4 288,21.2 480,12 C 672,2.8 768,98 960,99 C 1152,100 1344,33.4 1440,17L1440 560L0 560z" fill="rgba(214, 245, 255, 1)"></path><path d="M 0,350 C 57.6,329.2 172.8,255.4 288,246 C 403.2,236.6 460.8,305.2 576,303 C 691.2,300.8 748.8,227.4 864,235 C 979.2,242.6 1036.8,341.6 1152,341 C 1267.2,340.4 1382.4,253.8 1440,232L1440 560L0 560z" fill="rgba(255, 249, 214, 1)"></path><path d="M 0,485 C 96,464.2 288,378.2 480,381 C 672,383.8 768,497 960,499 C 1152,501 1344,412.6 1440,391L1440 560L0 560z" fill="rgba(255, 214, 228, 1)"></path></g><defs><mask id="SvgjsMask1060"><rect width="1440" height="560" fill="#ffffff"></rect></mask></defs></svg>