<svg width="154" height="45" viewBox="0 0 154 45" fill="none" xmlns="http://www.w3.org/2000/svg">
<path d="M44.9373 14.7994H49.6203C50.9783 14.7994 52.0493 15.1284 52.8333 15.7864C53.6313 16.4304 54.0303 17.3124 54.0303 18.4324C54.0303 19.7064 53.4773 20.6864 52.3713 21.3724C53.8413 21.9604 54.5763 22.9964 54.5763 24.4804C54.5763 25.3204 54.3663 26.0694 53.9463 26.7274C53.5263 27.3714 52.9383 27.8754 52.1823 28.2394C51.4403 28.6034 50.6003 28.7854 49.6623 28.7854H44.9373V14.7994ZM48.9063 20.4904C49.6063 20.4904 50.1453 20.3294 50.5233 20.0074C50.9153 19.6854 51.1113 19.2374 51.1113 18.6634C51.1113 17.6274 50.4673 17.1094 49.1793 17.1094H47.8563V20.4904H48.9063ZM49.2003 26.4544C49.9563 26.4544 50.5443 26.2794 50.9643 25.9294C51.3983 25.5794 51.6153 25.1104 51.6153 24.5224C51.6153 23.9904 51.4333 23.5774 51.0693 23.2834C50.7053 22.9894 50.1803 22.8424 49.4943 22.8424H47.8563V26.4544H49.2003ZM61.7863 29.1004C60.6943 29.1004 59.7283 28.8624 58.8883 28.3864C58.0623 27.9104 57.4183 27.2454 56.9563 26.3914C56.4943 25.5234 56.2633 24.5224 56.2633 23.3884C56.2633 22.2544 56.4873 21.2604 56.9353 20.4064C57.3973 19.5384 58.0413 18.8664 58.8673 18.3904C59.7073 17.9144 60.6733 17.6764 61.7653 17.6764C62.8573 17.6764 63.8163 17.9144 64.6423 18.3904C65.4823 18.8524 66.1263 19.5104 66.5743 20.3644C67.0363 21.2184 67.2673 22.2054 67.2673 23.3254C67.2673 24.4594 67.0363 25.4674 66.5743 26.3494C66.1263 27.2174 65.4823 27.8964 64.6423 28.3864C63.8163 28.8624 62.8643 29.1004 61.7863 29.1004ZM61.7653 26.5384C62.5213 26.5384 63.1233 26.2514 63.5713 25.6774C64.0333 25.0894 64.2643 24.3194 64.2643 23.3674C64.2643 22.4154 64.0333 21.6594 63.5713 21.0994C63.1233 20.5254 62.5213 20.2384 61.7653 20.2384C61.0093 20.2384 60.4003 20.5254 59.9383 21.0994C59.4903 21.6594 59.2663 22.4154 59.2663 23.3674C59.2663 24.3194 59.4903 25.0894 59.9383 25.6774C60.4003 26.2514 61.0093 26.5384 61.7653 26.5384ZM74.5627 29.1004C73.4707 29.1004 72.5047 28.8624 71.6647 28.3864C70.8387 27.9104 70.1947 27.2454 69.7327 26.3914C69.2707 25.5234 69.0397 24.5224 69.0397 23.3884C69.0397 22.2544 69.2637 21.2604 69.7117 20.4064C70.1737 19.5384 70.8177 18.8664 71.6437 18.3904C72.4837 17.9144 73.4497 17.6764 74.5417 17.6764C75.6337 17.6764 76.5927 17.9144 77.4187 18.3904C78.2587 18.8524 78.9027 19.5104 79.3507 20.3644C79.8127 21.2184 80.0437 22.2054 80.0437 23.3254C80.0437 24.4594 79.8127 25.4674 79.3507 26.3494C78.9027 27.2174 78.2587 27.8964 77.4187 28.3864C76.5927 28.8624 75.6407 29.1004 74.5627 29.1004ZM74.5417 26.5384C75.2977 26.5384 75.8997 26.2514 76.3477 25.6774C76.8097 25.0894 77.0407 24.3194 77.0407 23.3674C77.0407 22.4154 76.8097 21.6594 76.3477 21.0994C75.8997 20.5254 75.2977 20.2384 74.5417 20.2384C73.7857 20.2384 73.1767 20.5254 72.7147 21.0994C72.2667 21.6594 72.0427 22.4154 72.0427 23.3674C72.0427 24.3194 72.2667 25.0894 72.7147 25.6774C73.1767 26.2514 73.7857 26.5384 74.5417 26.5384ZM85.1995 24.0814V28.7854H82.2385V13.4344H85.1995V21.9184L88.5805 17.9704H92.0875L87.7615 22.8214L92.3185 28.6594L89.1055 29.1004L85.1995 24.0814ZM96.8109 29.1004C96.1249 29.1004 95.4599 29.0304 94.8159 28.8904C94.1859 28.7504 93.6469 28.5614 93.1989 28.3234L93.4719 25.8034C93.9479 26.0974 94.4729 26.3354 95.0469 26.5174C95.6209 26.6994 96.1599 26.7904 96.6639 26.7904C97.1399 26.7904 97.5389 26.7064 97.8609 26.5384C98.1829 26.3564 98.3439 26.0974 98.3439 25.7614C98.3439 25.4954 98.2319 25.2924 98.0079 25.1524C97.7839 24.9984 97.3569 24.8094 96.7269 24.5854L96.1599 24.3754C95.5579 24.1514 95.0679 23.9414 94.6899 23.7454C94.3119 23.5354 93.9689 23.2204 93.6609 22.8004C93.3529 22.3804 93.1989 21.8274 93.1989 21.1414C93.1989 20.0494 93.6049 19.2024 94.4169 18.6004C95.2429 17.9844 96.3139 17.6764 97.6299 17.6764C98.6659 17.6764 99.7579 17.8794 100.906 18.2854L100.507 20.7844C100.101 20.5464 99.6389 20.3574 99.1209 20.2174C98.6169 20.0634 98.1409 19.9864 97.6929 19.9864C97.2309 19.9864 96.8599 20.0634 96.5799 20.2174C96.3139 20.3714 96.1809 20.5954 96.1809 20.8894C96.1809 21.1694 96.2929 21.3794 96.5169 21.5194C96.7409 21.6594 97.1189 21.8204 97.6509 22.0024C98.0709 22.1564 98.3159 22.2474 98.3859 22.2754C98.9739 22.5134 99.4639 22.7444 99.8559 22.9684C100.248 23.1924 100.591 23.5284 100.885 23.9764C101.179 24.4104 101.326 24.9704 101.326 25.6564C101.326 26.8044 100.913 27.6654 100.087 28.2394C99.2609 28.8134 98.1689 29.1004 96.8109 29.1004ZM106.552 29.1004C105.432 29.1004 104.543 28.6244 103.885 27.6724C103.227 26.7204 102.898 25.4254 102.898 23.7874C102.898 21.7994 103.402 20.2874 104.41 19.2514C105.418 18.2014 106.867 17.6764 108.757 17.6764C109.821 17.6764 111.067 17.8444 112.495 18.1804V28.7854H109.681L109.744 27.0634H109.66C109.296 27.7214 108.848 28.2254 108.316 28.5754C107.798 28.9254 107.21 29.1004 106.552 29.1004ZM107.182 26.5174C107.616 26.5174 108.043 26.2864 108.463 25.8244C108.883 25.3624 109.275 24.7464 109.639 23.9764V20.4484C109.191 20.3224 108.743 20.2594 108.295 20.2594C107.455 20.2594 106.818 20.5464 106.384 21.1204C105.964 21.6944 105.754 22.5414 105.754 23.6614C105.754 24.5434 105.88 25.2434 106.132 25.7614C106.384 26.2654 106.734 26.5174 107.182 26.5174ZM115.381 17.9704H118.342V19.7344H118.51C118.916 19.0204 119.315 18.4954 119.707 18.1594C120.113 17.8234 120.617 17.6554 121.219 17.6554C121.471 17.6554 121.681 17.6834 121.849 17.7394L121.534 20.9314C121.17 20.8334 120.876 20.7844 120.652 20.7844C120.33 20.7844 120.043 20.8474 119.791 20.9734C119.553 21.0994 119.336 21.2674 119.14 21.4774C118.958 21.6874 118.692 22.0094 118.342 22.4434V28.7854H115.381V17.9704ZM123.705 17.9704H126.603V19.6504C127.457 18.3344 128.612 17.6764 130.068 17.6764C130.894 17.6764 131.594 17.8724 132.168 18.2644C132.756 18.6424 133.183 19.1884 133.449 19.9024C133.939 19.1324 134.485 18.5724 135.087 18.2224C135.703 17.8584 136.403 17.6764 137.187 17.6764C138.349 17.6764 139.252 18.0264 139.896 18.7264C140.554 19.4124 140.883 20.3714 140.883 21.6034V28.7854H137.922V22.0654C137.922 21.5054 137.782 21.0714 137.502 20.7634C137.236 20.4414 136.872 20.2804 136.41 20.2804C135.836 20.2804 135.304 20.5184 134.814 20.9944C134.324 21.4704 133.96 22.0794 133.722 22.8214V28.7854H130.761V22.0654C130.761 21.5194 130.621 21.0854 130.341 20.7634C130.061 20.4414 129.69 20.2804 129.228 20.2804C128.71 20.2804 128.22 20.4764 127.758 20.8684C127.31 21.2464 126.946 21.7854 126.666 22.4854V28.7854H123.705V17.9704ZM145.049 33.4894C144.405 33.4894 143.733 33.3354 143.033 33.0274L143.474 30.5914C144.006 30.8574 144.454 30.9904 144.818 30.9904C145.252 30.9904 145.574 30.8504 145.784 30.5704C146.008 30.2904 146.246 29.8004 146.498 29.1004L142.277 18.0124L145.343 17.7604L147.926 25.5094L150.32 17.9704H153.239C152.343 20.6864 151.398 23.3604 150.404 25.9924C149.424 28.6244 148.661 30.4304 148.115 31.4104C147.723 32.1104 147.282 32.6284 146.792 32.9644C146.316 33.3144 145.735 33.4894 145.049 33.4894Z" fill="white"/>
<path d="M6.0354 0H26.2119C28.9733 0 31.2119 2.23858 31.2119 5V34.8274H7.43409H6.0354V0Z" fill="#00EBC7"/>
<path d="M2 1H26.2118C28.4209 1 30.2118 2.79086 30.2118 5V33.8274H2.67843H2V1Z" stroke="white" stroke-width="2"/>
<path d="M2.25889 33.9883C0.580429 34.4079 0.790368 39.4432 2.46873 39.8628H31.0021" stroke="white" stroke-width="2"/>
<path d="M9.55593 41.0758L7.0354 42.4024V34.5686H13.0079V42.4024L10.4874 41.0758L10.0217 40.8307L9.55593 41.0758Z" fill="#FDE24F" stroke="white" stroke-width="2"/>
<rect x="12.749" y="9.65088" width="2.51765" height="6.29412" rx="1.25882" fill="#092244" fill-opacity="0.95"/>
<rect x="21.5608" y="9.65088" width="2.51765" height="6.29412" rx="1.25882" fill="#092244" fill-opacity="0.95"/>
<path d="M12.749 20.3061C12.749 19.9833 13.0107 19.7217 13.3335 19.7217H23.494C23.8168 19.7217 24.0784 19.9833 24.0784 20.3061V20.3061C24.0784 22.996 21.8979 25.1766 19.208 25.1766H17.6195C14.9296 25.1766 12.749 22.996 12.749 20.3061V20.3061Z" fill="#092244" fill-opacity="0.95"/>
<rect x="8.39893" y="35.7609" width="0.616567" height="4.31597" rx="0.308283" fill="white" fill-opacity="0.8"/>
</svg>
