<svg width="154" height="46" viewBox="0 0 154 46" fill="none" xmlns="http://www.w3.org/2000/svg">
<path d="M44.9373 15.77H49.6203C50.9783 15.77 52.0493 16.099 52.8333 16.757C53.6313 17.401 54.0303 18.283 54.0303 19.403C54.0303 20.677 53.4773 21.657 52.3713 22.343C53.8413 22.931 54.5763 23.967 54.5763 25.451C54.5763 26.291 54.3663 27.04 53.9463 27.698C53.5263 28.342 52.9383 28.846 52.1823 29.21C51.4403 29.574 50.6003 29.756 49.6623 29.756H44.9373V15.77ZM48.9063 21.461C49.6063 21.461 50.1453 21.3 50.5233 20.978C50.9153 20.656 51.1113 20.208 51.1113 19.634C51.1113 18.598 50.4673 18.08 49.1793 18.08H47.8563V21.461H48.9063ZM49.2003 27.425C49.9563 27.425 50.5443 27.25 50.9643 26.9C51.3983 26.55 51.6153 26.081 51.6153 25.493C51.6153 24.961 51.4333 24.548 51.0693 24.254C50.7053 23.96 50.1803 23.813 49.4943 23.813H47.8563V27.425H49.2003ZM61.7863 30.071C60.6943 30.071 59.7283 29.833 58.8883 29.357C58.0623 28.881 57.4183 28.216 56.9563 27.362C56.4943 26.494 56.2633 25.493 56.2633 24.359C56.2633 23.225 56.4873 22.231 56.9353 21.377C57.3973 20.509 58.0413 19.837 58.8673 19.361C59.7073 18.885 60.6733 18.647 61.7653 18.647C62.8573 18.647 63.8163 18.885 64.6423 19.361C65.4823 19.823 66.1263 20.481 66.5743 21.335C67.0363 22.189 67.2673 23.176 67.2673 24.296C67.2673 25.43 67.0363 26.438 66.5743 27.32C66.1263 28.188 65.4823 28.867 64.6423 29.357C63.8163 29.833 62.8643 30.071 61.7863 30.071ZM61.7653 27.509C62.5213 27.509 63.1233 27.222 63.5713 26.648C64.0333 26.06 64.2643 25.29 64.2643 24.338C64.2643 23.386 64.0333 22.63 63.5713 22.07C63.1233 21.496 62.5213 21.209 61.7653 21.209C61.0093 21.209 60.4003 21.496 59.9383 22.07C59.4903 22.63 59.2663 23.386 59.2663 24.338C59.2663 25.29 59.4903 26.06 59.9383 26.648C60.4003 27.222 61.0093 27.509 61.7653 27.509ZM74.5627 30.071C73.4707 30.071 72.5047 29.833 71.6647 29.357C70.8387 28.881 70.1947 28.216 69.7327 27.362C69.2707 26.494 69.0397 25.493 69.0397 24.359C69.0397 23.225 69.2637 22.231 69.7117 21.377C70.1737 20.509 70.8177 19.837 71.6437 19.361C72.4837 18.885 73.4497 18.647 74.5417 18.647C75.6337 18.647 76.5927 18.885 77.4187 19.361C78.2587 19.823 78.9027 20.481 79.3507 21.335C79.8127 22.189 80.0437 23.176 80.0437 24.296C80.0437 25.43 79.8127 26.438 79.3507 27.32C78.9027 28.188 78.2587 28.867 77.4187 29.357C76.5927 29.833 75.6407 30.071 74.5627 30.071ZM74.5417 27.509C75.2977 27.509 75.8997 27.222 76.3477 26.648C76.8097 26.06 77.0407 25.29 77.0407 24.338C77.0407 23.386 76.8097 22.63 76.3477 22.07C75.8997 21.496 75.2977 21.209 74.5417 21.209C73.7857 21.209 73.1767 21.496 72.7147 22.07C72.2667 22.63 72.0427 23.386 72.0427 24.338C72.0427 25.29 72.2667 26.06 72.7147 26.648C73.1767 27.222 73.7857 27.509 74.5417 27.509ZM85.1995 25.052V29.756H82.2385V14.405H85.1995V22.889L88.5805 18.941H92.0875L87.7615 23.792L92.3185 29.63L89.1055 30.071L85.1995 25.052ZM96.8109 30.071C96.1249 30.071 95.4599 30.001 94.8159 29.861C94.1859 29.721 93.6469 29.532 93.1989 29.294L93.4719 26.774C93.9479 27.068 94.4729 27.306 95.0469 27.488C95.6209 27.67 96.1599 27.761 96.6639 27.761C97.1399 27.761 97.5389 27.677 97.8609 27.509C98.1829 27.327 98.3439 27.068 98.3439 26.732C98.3439 26.466 98.2319 26.263 98.0079 26.123C97.7839 25.969 97.3569 25.78 96.7269 25.556L96.1599 25.346C95.5579 25.122 95.0679 24.912 94.6899 24.716C94.3119 24.506 93.9689 24.191 93.6609 23.771C93.3529 23.351 93.1989 22.798 93.1989 22.112C93.1989 21.02 93.6049 20.173 94.4169 19.571C95.2429 18.955 96.3139 18.647 97.6299 18.647C98.6659 18.647 99.7579 18.85 100.906 19.256L100.507 21.755C100.101 21.517 99.6389 21.328 99.1209 21.188C98.6169 21.034 98.1409 20.957 97.6929 20.957C97.2309 20.957 96.8599 21.034 96.5799 21.188C96.3139 21.342 96.1809 21.566 96.1809 21.86C96.1809 22.14 96.2929 22.35 96.5169 22.49C96.7409 22.63 97.1189 22.791 97.6509 22.973C98.0709 23.127 98.3159 23.218 98.3859 23.246C98.9739 23.484 99.4639 23.715 99.8559 23.939C100.248 24.163 100.591 24.499 100.885 24.947C101.179 25.381 101.326 25.941 101.326 26.627C101.326 27.775 100.913 28.636 100.087 29.21C99.2609 29.784 98.1689 30.071 96.8109 30.071ZM106.552 30.071C105.432 30.071 104.543 29.595 103.885 28.643C103.227 27.691 102.898 26.396 102.898 24.758C102.898 22.77 103.402 21.258 104.41 20.222C105.418 19.172 106.867 18.647 108.757 18.647C109.821 18.647 111.067 18.815 112.495 19.151V29.756H109.681L109.744 28.034H109.66C109.296 28.692 108.848 29.196 108.316 29.546C107.798 29.896 107.21 30.071 106.552 30.071ZM107.182 27.488C107.616 27.488 108.043 27.257 108.463 26.795C108.883 26.333 109.275 25.717 109.639 24.947V21.419C109.191 21.293 108.743 21.23 108.295 21.23C107.455 21.23 106.818 21.517 106.384 22.091C105.964 22.665 105.754 23.512 105.754 24.632C105.754 25.514 105.88 26.214 106.132 26.732C106.384 27.236 106.734 27.488 107.182 27.488ZM115.381 18.941H118.342V20.705H118.51C118.916 19.991 119.315 19.466 119.707 19.13C120.113 18.794 120.617 18.626 121.219 18.626C121.471 18.626 121.681 18.654 121.849 18.71L121.534 21.902C121.17 21.804 120.876 21.755 120.652 21.755C120.33 21.755 120.043 21.818 119.791 21.944C119.553 22.07 119.336 22.238 119.14 22.448C118.958 22.658 118.692 22.98 118.342 23.414V29.756H115.381V18.941ZM123.705 18.941H126.603V20.621C127.457 19.305 128.612 18.647 130.068 18.647C130.894 18.647 131.594 18.843 132.168 19.235C132.756 19.613 133.183 20.159 133.449 20.873C133.939 20.103 134.485 19.543 135.087 19.193C135.703 18.829 136.403 18.647 137.187 18.647C138.349 18.647 139.252 18.997 139.896 19.697C140.554 20.383 140.883 21.342 140.883 22.574V29.756H137.922V23.036C137.922 22.476 137.782 22.042 137.502 21.734C137.236 21.412 136.872 21.251 136.41 21.251C135.836 21.251 135.304 21.489 134.814 21.965C134.324 22.441 133.96 23.05 133.722 23.792V29.756H130.761V23.036C130.761 22.49 130.621 22.056 130.341 21.734C130.061 21.412 129.69 21.251 129.228 21.251C128.71 21.251 128.22 21.447 127.758 21.839C127.31 22.217 126.946 22.756 126.666 23.456V29.756H123.705V18.941ZM145.049 34.46C144.405 34.46 143.733 34.306 143.033 33.998L143.474 31.562C144.006 31.828 144.454 31.961 144.818 31.961C145.252 31.961 145.574 31.821 145.784 31.541C146.008 31.261 146.246 30.771 146.498 30.071L142.277 18.983L145.343 18.731L147.926 26.48L150.32 18.941H153.239C152.343 21.657 151.398 24.331 150.404 26.963C149.424 29.595 148.661 31.401 148.115 32.381C147.723 33.081 147.282 33.599 146.792 33.935C146.316 34.285 145.735 34.46 145.049 34.46Z" fill="black"/>
<path d="M6.03528 0.970642H26.2117C28.9732 0.970642 31.2117 3.20922 31.2117 5.97064V35.7981H7.43397H6.03528V0.970642Z" fill="#CCD5DB"/>
<path d="M2 1.97064H26.2118C28.4209 1.97064 30.2118 3.7615 30.2118 5.97064V34.7981H2.67843H2V1.97064Z" stroke="#092244" stroke-width="2"/>
<path d="M2.25876 34.9589C0.580307 35.3785 0.790246 40.4138 2.46861 40.8334H31.0019" stroke="#092244" stroke-width="2"/>
<path d="M9.55581 42.0465L7.03528 43.3731V35.5392H13.0078V43.3731L10.4873 42.0465L10.0216 41.8014L9.55581 42.0465Z" fill="#FDE24F" stroke="#092244" stroke-width="2"/>
<rect x="12.749" y="10.6216" width="2.51765" height="6.29412" rx="1.25882" fill="#092244" fill-opacity="0.95"/>
<rect x="21.5608" y="10.6216" width="2.51765" height="6.29412" rx="1.25882" fill="#092244" fill-opacity="0.95"/>
<path d="M12.749 21.2768C12.749 20.9541 13.0107 20.6924 13.3335 20.6924H23.494C23.8168 20.6924 24.0784 20.9541 24.0784 21.2768C24.0784 23.9667 21.8979 26.1473 19.208 26.1473H17.6195C14.9296 26.1473 12.749 23.9667 12.749 21.2768Z" fill="#092244" fill-opacity="0.95"/>
<rect x="8.3988" y="36.7316" width="0.616567" height="4.31597" rx="0.308283" fill="white" fill-opacity="0.8"/>
</svg>
